<svg version="1.1" id="Layer_1" xmlns="http://www.w3.org/2000/svg" xmlns:xlink="http://www.w3.org/1999/xlink" x="0px" y="0px"
	 width="120px" height="112px" viewBox="0 0 202.55 188.4" style="enable-background:new 0 0 202.55 188.4;" xml:space="preserve">
<style type="text/css">
	.st0{fill-rule:evenodd;clip-rule:evenodd;fill:#28334A;}
	.st1{fill-rule:evenodd;clip-rule:evenodd;fill:#00B388;}
	.st2{fill:#28334A;}
</style>
<g>
	<g>
		<path class="st0" d="M7.78,167.22l-5.64-0.01l-0.02,20.56l5.64,0.01l0.02-13.94c1.14-1.21,3.1-2.66,4.98-2.66
			c2.08,0,2.51,1.49,2.5,3.37l-0.01,13.24l5.6,0.01l0.01-13.83c1.14-1.25,3.14-2.78,5.06-2.78c2.04,0,2.47,1.49,2.46,3.37
			l-0.01,13.24l5.64,0.01l0.02-14.53c0-3.84-1.64-6.46-6.06-6.47c-3.25,0-6.19,2.19-7.52,3.52c-0.7-1.92-2.31-3.53-5.6-3.53
			c-2.9,0-5.56,1.76-7.05,3.05L7.78,167.22L7.78,167.22z M57.31,178.79c0,0,0.31-1.21,0.32-2.86c0.01-5.25-3.2-9.09-9.66-9.1
			c-6.31-0.01-10.27,3.91-10.27,10.76c-0.01,7.29,4.38,10.66,9.78,10.66c4.62,0,8.62-2.26,10.27-3.16l-2.15-3.53
			c-2.39,1.25-5.21,2.5-7.56,2.5c-2.7,0-4.23-1.88-4.54-5.29L57.31,178.79L57.31,178.79z M48,170.87c2.7,0,4.15,1.61,4.11,4.86
			l-8.58-0.01C43.92,172.62,45.37,170.86,48,170.87L48,170.87L48,170.87z M74.57,187.85l5.64,0.01l0.01-13.28
			c0.01-5.6-2.58-7.72-8.26-7.72c-2.94,0-6.35,0.62-10.3,1.91l1.76,3.92c3.17-0.98,5.45-1.56,7.52-1.56c2.78,0,3.64,0.94,3.64,3.22
			l0,1.57c-1.41-0.28-4.42-0.98-6.81-0.99c-4.27,0-7.52,2.3-7.53,6.61c0,4.23,3.13,6.74,7.12,6.74c3.21,0,5.64-1.4,7.21-2.85
			L74.57,187.85L74.57,187.85z M69.13,183.89c-1.84,0-3.17-0.87-3.17-2.82c0-1.84,1.18-3.05,3.76-3.05c1.57,0,3.72,0.43,4.86,0.67
			l0,3.02C72.89,183.15,71.05,183.89,69.13,183.89L69.13,183.89L69.13,183.89z M94.99,175.46c-2.43-0.63-5.36-1.02-5.36-2.71
			c0-0.98,0.98-1.6,2.7-1.6c2,0,4.97,0.87,6.89,1.65l2.2-3.68c-2.15-1.02-5.87-2.24-9.44-2.24c-5.13-0.01-7.99,2.5-8,6.1
			c0,4.15,3.75,5.68,7.04,6.55c2.43,0.63,5.6,1.18,5.6,2.87c0,0.98-1.14,1.6-2.78,1.6c-2.31,0-5.95-1.26-8.07-2.32l-2.24,3.95
			c2.27,1.26,6.5,2.67,10.49,2.67c5.09,0.01,8.27-2.3,8.27-6.14C102.31,178.17,98.99,176.48,94.99,175.46L94.99,175.46L94.99,175.46
			z M119.77,187.9l5.6,0.01l0.02-20.56l-5.6-0.01l-0.02,13.98c-1.29,1.17-3.76,2.62-5.84,2.62c-2.15,0-2.66-1.45-2.66-3.37
			l0.01-13.24l-5.64-0.01l-0.02,14.53c0,3.84,1.68,6.46,6.1,6.47c3.29,0,6.19-1.64,8.03-2.89L119.77,187.9L119.77,187.9z
			 M135.93,167.36l-5.64-0.01l-0.02,20.56l5.64,0.01l0.01-8.93c0,0,0.79-6.58,7.72-6.57l0.01-5.29c-5.29-0.36-7.29,3.48-7.72,4.54
			L135.93,167.36L135.93,167.36z M159.41,187.94l5.64,0.01l0.01-13.28c0.01-5.6-2.58-7.72-8.26-7.72c-2.94,0-6.35,0.62-10.3,1.91
			l1.76,3.92c3.17-0.98,5.45-1.56,7.52-1.56c2.78,0,3.64,0.94,3.64,3.22l0,1.57c-1.41-0.28-4.42-0.98-6.81-0.99
			c-4.27,0-7.52,2.3-7.53,6.61c0,4.23,3.13,6.74,7.12,6.74c3.21,0,5.64-1.4,7.21-2.85L159.41,187.94L159.41,187.94z M153.97,183.98
			c-1.84,0-3.17-0.87-3.17-2.82c0-1.84,1.18-3.05,3.76-3.05c1.57,0,3.72,0.43,4.86,0.67l0,3.02
			C157.73,183.24,155.89,183.98,153.97,183.98L153.97,183.98L153.97,183.98z M169.71,187.96l5.64,0.01l0-2.23
			c1.68,1.41,3.8,2.67,6.89,2.67c4.66,0.01,7.99-3.52,8-10.68c0.01-7.25-3.32-10.74-7.98-10.74c-3.09,0-5.21,1.29-6.9,2.73
			l0.01-10.3l-5.64-0.01L169.71,187.96L169.71,187.96z M180.58,171.52c2.62,0,3.95,2.2,3.95,6.15c0,4-1.34,6.19-3.96,6.18
			c-1.88,0-3.76-0.94-5.21-2.63l0.01-7.05C176.82,172.45,178.7,171.52,180.58,171.52L180.58,171.52L180.58,171.52z M199.91,187.99
			l0.03-28.55l-5.64-0.01l-0.03,28.55L199.91,187.99L199.91,187.99z"/>
	</g>
	<path class="st1" d="M119.53,19.84C114.88,7.72,104.18,0.02,85.54,0c-16.3-0.02-31,9.05-39.86,16.49L45.7,2.52L2.6,2.47L2.54,54.43
		l18.57,0.02c1.7,0,3.07,1.38,3.07,3.08c0,1.69-1.38,3.07-3.08,3.07L2.53,60.59l-0.01,6.85l8.39,0.01c1.7,0,3.07,1.39,3.07,3.09
		c0,1.7-1.38,3.07-3.07,3.07l-8.39-0.01l-0.01,6.16l17.59,0.02c1.7,0,3.07,1.39,3.07,3.08c0,1.71-1.38,3.08-3.08,3.08L2.5,85.91
		L2.5,92.07l8.39,0.01c1.7,0,3.07,1.38,3.07,3.09c0,1.71-1.38,3.08-3.07,3.07l-8.39-0.01l-0.01,6.16l17.59,0.02
		c1.7,0,3.07,1.38,3.07,3.07c0,1.71-1.38,3.07-3.08,3.07l-17.59-0.02l-0.02,14.23l43.09,0.05l0.09-79.44
		c5.6-6.05,14.46-12.33,22.85-12.32c10.02,0.01,11.64,6.76,11.63,16.32l-0.09,75.48l42.63,0.05l0.09-78.74
		c5.6-6.29,14.7-13.02,23.31-13.01c9.78,0.01,11.18,6.76,11.17,16.31l-0.09,75.48l43.1,0.05l0.1-85.73
		c0.03-24.69-11.14-39.15-37.47-39.18C144.01,0.07,127.69,11.93,119.53,19.84L119.53,19.84z"/>
	<path class="st2" d="M199.5,147.06L3.05,147.07c-1.68,0-3.05-1.37-3.05-3.05s1.37-3.05,3.05-3.05l196.45-0.01
		c1.68,0,3.05,1.37,3.05,3.05C202.55,145.7,201.18,147.06,199.5,147.06z"/>
</g>
</svg>
